PathFileType	4	(X/Y/Z)	24_1_tpose_p0_0-248_filt_butterworth.trc
DataRate	CameraRate	NumFrames	NumMarkers	Units	OrigDataRate	OrigDataStartFrame	OrigNumFrames
54.0	54.0	4	27	m	54.0	0	248
Frame#	Time	RHip			RKnee			RAnkle			RBigToe			RSmallToe			RHeel			LHip			LKnee			LAnkle			LBigToe			LSmallToe			LHeel			Neck			Head			Nose			RShoulder			RElbow			RWrist			RThumb			RIndex			RPinky			LShoulder			LElbow			LWrist			LThumb			LIndex			LPinky			
		X1	Y1	Z1	X2	Y2	Z2	X3	Y3	Z3	X4	Y4	Z4	X5	Y5	Z5	X6	Y6	Z6	X7	Y7	Z7	X8	Y8	Z8	X9	Y9	Z9	X10	Y10	Z10	X11	Y11	Z11	X12	Y12	Z12	X13	Y13	Z13	X14	Y14	Z14	X15	Y15	Z15	X16	Y16	Z16	X17	Y17	Z17	X18	Y18	Z18	X19	Y19	Z19	X20	Y20	Z20	X21	Y21	Z21	X22	Y22	Z22	X23	Y23	Z23	X24	Y24	Z24	X25	Y25	Z25	X26	Y26	Z26	X27	Y27	Z27	
0	0.0	0.4128083818962315	0.8721791791010964	0.6021218377642331	0.424181902470499	0.43496183582260767	0.6210652795582049	0.41127878419992153	0.022873185164791338	0.6825084649196327	0.40076020048870226	0.0471188622089755	0.4863553609196937	0.4618114841423961	0.0469970749560595	0.5134138020878057	0.3863754675487129	-0.0822469346131035	0.783855166211207	0.2336204394305829	0.8674343181463626	0.5955148608201946	0.2040317427221728	0.4059925560221336	0.6533471608011315	0.21094746757230354	0.01896253074943896	0.6722346929175453	0.2484157895585781	0.06658844159742855	0.4529520316635635	0.20831645500429888	0.05314381269317031	0.4882514933893451	0.22439965062979686	-0.04393278942598148	0.7348578302424323	0.3217051068382307	1.3674167316447674	0.5954837579074544	0.33011197915615276	1.619601686668444	0.5242937169499418	0.3171945985978798	1.4793581413866854	0.46820540334117755	0.46103770871132355	1.3334891097318442	0.6028345910239367	0.6931163441097536	1.364654954152391	0.6174594238883329	0.9285593844767768	1.3977258829024035	0.6635706452570027	1.0565788121506858	1.3958166407431867	0.637238635758073	1.0925427798700456	1.378886010670102	0.7010174481335107	1.051416107740173	1.3643335096443883	0.7013010088782708	0.17547750796224168	1.3371423600305279	0.594802107560491	-0.04328015255732873	1.3602788585990544	0.5090748070132947	-0.2736191199903686	1.4202422088384155	0.508779791297117	-0.3384582645192371	1.397856615741481	0.5007806287148737	-0.38545790142773206	1.4082243707699167	0.49719957497990064	-0.41373370129117615	1.4027868273049304	0.551560434774138	
1	0.0185185185185185	0.4128594684292802	0.8733565976874746	0.5969045965854624	0.4235261327657431	0.4336541845649128	0.6224642702301335	0.4113036720087531	0.022961742107945382	0.6824921434153451	0.401964255813965	0.048290330350014156	0.48317720798786756	0.46426718665454897	0.04455642526893629	0.5156168315564122	0.3866087143943428	-0.08185242792073512	0.786830992328528	0.2340687739145935	0.8687129959062976	0.5924054341664771	0.20344412550205396	0.40844921852476623	0.6489895637280658	0.21107844152842045	0.01900320122370143	0.6723457529383337	0.2488823796830272	0.06491368149661329	0.4588844989224943	0.20847614467375744	0.05474973134043449	0.48896037334068265	0.22500721557578052	-0.042798599033577994	0.7351732481045896	0.321998814325048	1.3679370846996055	0.5955040403580274	0.33390201909295464	1.6196760654132603	0.5264462839893491	0.31890576623332423	1.4785572101312534	0.46909563000892973	0.46086503474555235	1.3351861657343758	0.602329389808212	0.6945706238887818	1.3635583714991186	0.6233022224201107	0.9286225702011482	1.3976315511121973	0.6639406016203226	1.0607618694979215	1.394089260439438	0.6468497366566852	1.0921445987465366	1.378159717977489	0.7052821216414074	1.0533716732304783	1.3612743820049547	0.7146179272772192	0.17732998914217224	1.340158635721803	0.5833061580367881	-0.04288583901053623	1.3602474130721807	0.5090934535805784	-0.2738787809597809	1.4202660240614893	0.5064192964713643	-0.3432249821940364	1.3950889273539537	0.5068945357774359	-0.3844896635872792	1.4091858570608606	0.4906302512371116	-0.4099832518856332	1.4028046605701796	0.5448043157696532	
2	0.037037037037037	0.41302719060712906	0.874388758043203	0.5922497289820928	0.4229730014551819	0.4326631678677003	0.6234524104828547	0.4113299765358626	0.02302595073113234	0.6824758932257147	0.4037108277930472	0.049050370927368046	0.4812371842370184	0.4665268325270711	0.04391267789612825	0.5155292654201474	0.38683297342053496	-0.08168226015340133	0.7893970775277034	0.2345880030266257	0.8698092006097549	0.58954478830078	0.20296654259663283	0.4102701913299158	0.6456653390091341	0.21127252901667454	0.019017827285044614	0.672481788810246	0.24919876260666618	0.06412225246691744	0.46259745358221294	0.20880971111634272	0.05607356784931335	0.4889441007348054	0.22559928708930332	-0.04187336285568186	0.7354888481396118	0.32206170240004617	1.3680229600710112	0.5954967529057241	0.335860567176959	1.6195869236127554	0.5295038063697486	0.3200341472958235	1.4780957115795839	0.4696262053128142	0.4607479967520843	1.3363609484567864	0.6019935229007304	0.6955167165116182	1.3630001807732288	0.6269902795610074	0.9286734875341116	1.3976093262888778	0.6641102951410777	1.0639572341807555	1.3927754013300022	0.6539789391542209	1.0917842169733731	1.3777929552709713	0.708860673929325	1.055421679788754	1.3586827265978731	0.7251375452095401	0.1786294466585751	1.3425699320401083	0.5756521554937226	-0.04274117481954966	1.3602319741511013	0.5090999604415749	-0.2736642196698342	1.4202883834545736	0.505949353949531	-0.346068356053046	1.3933660606428153	0.5106288090541609	-0.3840638784584754	1.4097758935077764	0.4864561737956683	-0.4077371565993927	1.4026993753144599	0.5409966628678646	
3	0.0555555555555555	0.4132971356025149	0.8752863297823003	0.5881264788126447	0.42251322869629465	0.43196255032534336	0.6240611399940896	0.4113570603059057	0.023068395815201148	0.6824598136936888	0.4057571471164299	0.049469967307237565	0.48031139236611714	0.46851781282333393	0.044616905088527704	0.5137484807539942	0.38704766762838283	-0.08171386896950406	0.7915820761030887	0.23516585802673542	0.8707377857668858	0.5869233654272618	0.20259375524029144	0.41152124945178714	0.6432644940263504	0.2115214723451856	0.019009087242612716	0.6726397180632859	0.24937984935044824	0.06406663977987007	0.4644061525742029	0.20921083341516586	0.057072899489027246	0.48848851022803097	0.2261745923589529	-0.04114943511062975	0.7358140132174992	0.3219540927044261	1.3678373029996849	0.5954736380227175	0.3364069615188653	1.6194135036830637	0.5331285445639113	0.32065625287464933	1.4780751753771306	0.46985687349979	0.46067751001019536	1.3371015795209984	0.6017958631885985	0.6960483291784167	1.3628363575102507	0.6289376143811827	0.9287113848526354	1.3976406968647288	0.6641283085775976	1.0662434995840506	1.3918304735248619	0.6589415604645863	1.091456465497865	1.3776893784713495	0.7119003341208243	1.057438125298688	1.3565058819730806	0.733046679225644	0.1794644090717768	1.3444486820169117	0.5711493750251474	-0.042768423501989276	1.3602288096488815	0.5090976934626067	-0.2731130815160411	1.420272115743012	0.5069927441307638	-0.3472861641704859	1.3924974863560051	0.5123360125880694	-0.3839853789138297	1.4100738147386749	0.48418921701803114	-0.4066340257389378	1.4025284717060997	0.5393779457200156	
